#!OML:ASF E:/inclinewalkrobotboard/Project1/Captureday1/Session1/subject1.ASF
:FULLY-SPECIFIED
:DEGREES
76
root 0 0 0 -1.4424138047865185 0.43847206151804263 2.987643906233805
lowerback 10.18066604222342 -1.5020773467033197 -4.668244762649712
upperback 0.4395209717280685 -2.446124491885339 1.4035906899906558
thorax -5.07725267358871 -1.0869387877047525 4.434316750107941
lowerneck -17.3273685669379 -2.4687560765131824 -2.0346575992874207
upperneck 20.203328731147263 -2.8079776176860163 -0.32083059197105634
head 9.289949024948939 -1.4812105893567828 -0.13634583662019029
rclavicle 3.5121179870420476E-15 -9.27533469585548E-16
rhumerus -32.39091490759763 -24.403429797720182 -75.79722519200007
rradius 25.3630443758327
rwrist 3.3268174297545317
rhand -18.85574044055673 22.543236847911047
rfingers 7.12502000000002
rthumb 7.447275569460405 -7.388909824077231
lclavicle 2.6885931335168815E-15 -5.310402402091211E-16
lhumerus -24.184156183664964 -5.41393796188454 81.7611136201882
lradius 31.909656247680193
lwrist 7.426431547975291
lhand -28.10859170193232 25.3186813339905
lfingers 7.125020000000002
lthumb -1.485736580324211 55.310190452163724
rfemur -30.599331248943024 7.930505970565141 19.53260259776443
rtibia 14.996018704372684
rfoot -8.240285310679045 -14.394483309202553
rtoes -4.717989401618842
lfemur 12.375896393094987 -3.3572712639356816 -29.63858817099183
ltibia 19.92812111940967
lfoot -16.578464238125314 -1.8259819502859505
ltoes 1.0134067611412405
77
root 0 0 0 -1.439902341224833 0.4771614225476064 2.487572114084078
lowerback 10.227015037568417 -1.5383640397037666 -4.2966436247589765
upperback 0.40966263487712995 -2.442403694840724 1.5517333456563382
thorax -5.13217994751836 -1.0919930205528465 4.380285727241128
lowerneck -17.361406820546193 -2.440174412476334 -1.9508300678989428
upperneck 20.209140914896793 -2.7611175397375507 -0.4591093089330156
head 9.298716018105592 -1.4691138228995573 -0.191821485129465
rclavicle 2.5671455596083127E-15 -1.1449002607573109E-15
rhumerus -32.71996707346373 -25.00682861639084 -75.58095468446314
rradius 24.952714212639044
rwrist 3.678219669929649
rhand -18.849780814204358 22.355354149539608
rfingers 7.125020000000018
rthumb 7.452654900807463 -7.58496712608801
lclavicle 1.6619236502577155E-15 -6.79951478482131E-16
lhumerus -24.610595279693932 -4.909566930847071 81.62331458992504
lradius 31.54759108035403
lwrist 7.284776250213305
lhand -28.025409112255407 25.731572101385577
lfingers 7.125020000000004
lthumb -1.4042811387122818 55.71982561639283
rfemur -27.901456767011027 7.563610898050619 19.291894537144326
rtibia 15.92462824810568
rfoot -6.850370180259268 -12.252360275568165
rtoes -4.002436851919323
lfemur 15.147624588104303 -3.5119757016510538 -29.211937230914057
ltibia 21.254779686401868
lfoot -13.04122178045887 -4.908716703987388
ltoes -2.219883045279591
78
root 0 0 0 -1.47276936642473 0.5542714779671716 1.1339209960772547
lowerback 10.395162050066709 -1.643152991366032 -3.304920059684628
upperback 0.3923555377185101 -2.4388527970378053 1.945561978999958
thorax -5.240405440767259 -1.1106216527552066 4.235481689003779
lowerneck -17.431782150170136 -2.384056189248665 -1.8063084259697506
upperneck 19.769880567737424 -2.686917757806585 -0.5858407057013972
head 9.167864177276035 -1.438080854073861 -0.24680710568122205
rclavicle 2.2096229245961084E-15 -1.6280550727237089E-15
rhumerus -32.956296069966236 -25.49385569285205 -75.42354046558958
rradius 24.475827243620778
rwrist 4.103309718839921
rhand -18.793867422633685 22.271493775180815
rfingers 7.125020000000017
rthumb 7.506779771124087 -7.670977267903947
lclavicle 1.2026805206276583E-15 -1.0568104595358538E-15
lhumerus -25.45396536624959 -4.329491778024418 81.68201772655496
lradius 31.136803850262126
lwrist 7.13507423439891
lhand -27.921725695384097 25.859767170104043
lfingers 7.125020000000006
lthumb -1.3033952026565085 55.844867544604455
rfemur -24.275613242717032 5.672566116092069 20.511801835027814
rtibia 25.682065831099738
rfoot -5.854605880824405 -8.296573706908882
rtoes 0.9542463631777762
lfemur 16.74144236257438 -3.7117465152787625 -27.60262006251342
ltibia 26.167031816105293
lfoot -5.967659410037614 -9.134979368085522
ltoes -8.055957995369187
79
root 0 0 0 -1.6663732338974409 0.6850448439150143 -1.7889041448642307
lowerback 10.704106615151689 -1.8588085952392572 -1.0869325616653958
upperback 0.45553457352726845 -2.4070604312296373 2.7990278170787364
thorax -5.348670543651048 -1.1403481326909863 3.8802472119669327
lowerneck -17.422971443124123 -2.320145202913279 -1.5695160645599717
upperneck 19.303781485762805 -2.607039225302139 -0.7695217274354491
head 9.00485435599383 -1.4039268409290848 -0.33620592019744505
rclavicle 2.150330290448261E-15 -2.2873629263809957E-15
rhumerus -32.9932850082535 -25.698761729427147 -75.3400393429717
rradius 24.159724127173817
rwrist 4.41999108288561
rhand -18.713646877110047 22.282166415162244
rfingers 7.125020000000017
rthumb 7.584558571987865 -7.654014002489859
lclavicle 9.690120781627058E-16 -1.6561872032919443E-15
lhumerus -27.508781983430502 -3.437389787537315 82.21086627922519
lradius 30.509145136845927
lwrist 6.992789708439492
lhand -27.729349679493268 25.378289610498456
lfingers 7.125020000000013
lthumb -1.1185946063210483 55.35614055695519
rfemur -21.015270512562406 4.583261037171195 22.552991381534895
rtibia 33.279664678144854
rfoot -6.000171138740582 -5.2606074333952435
rtoes 6.787719305314547
lfemur 12.864446549182908 -3.0113914371867323 -21.784328427710022
ltibia 47.07971376229146
lfoot 8.948229236740211 -16.83446291540983
ltoes -14.391190041254609
80
root 0 0 0 -3.162734385717359 0.028768070563200077 -3.501932211805799
lowerback 11.4156575729548 -1.4378868320315719 0.5169163185287977
upperback 1.0833575684552688 -1.625203258279022 3.1148874610638098
thorax -5.210625980884074 -0.7807080033738731 3.2151047493036553
lowerneck -16.184811921579325 -2.570775031852309 -1.4848677497019174
upperneck 22.25431142851609 -3.026605785074487 -0.5729600824394272
head 9.80667632512463 -1.5715493797450675 -0.34969964431952655
rclavicle 3.3556376544257955E-15 -4.642885794390078E-15
rhumerus -32.75695497348735 -25.288475016173944 -75.81002854970583
rradius 23.713927898701805
rwrist 4.827215894062147
rhand -18.46832423805965 22.418011181339274
rfingers 7.125020000000018
rthumb 7.82371054759802 -7.483667736479013
lclavicle 1.495624122921395E-15 -4.4801654343843394E-15
lhumerus -31.42202433863546 -2.3404632925280264 83.70835939833984
lradius 29.558755206120203
lwrist 6.748685331029231
lhand -27.384562965309115 24.19576622665614
lfingers 7.125020000000023
lthumb -0.7867002907636023 54.164264885654106
rfemur -18.2964952821275 6.149783079076956 26.058007382847585
rtibia 30.546119650121387
rfoot -9.03733427294848 -5.799797925525668
rtoes 11.111273368907373
lfemur -2.7684157434687338 0.13006865423849412 -16.35594366446343
ltibia 62.71536438183897
lfoot 18.36790228607365 -21.110302624432542
ltoes -4.8335059269434275
81
root 0 0 0 -3.787382883907356 -0.6875841011717221 -3.9020549088106042
lowerback 12.350206384975094 -1.104887693280483 1.1886979300220744
upperback 1.085772519964825 -1.102369251058416 2.9967705455391425
thorax -5.79657637586695 -0.5353122935453514 2.6433948648558134
lowerneck -16.118080500837642 -2.7654034042644664 -1.4889069120082783
upperneck 21.95419194881149 -3.3119136091065653 -0.45343423490261503
head 9.73416473183215 -1.707956710310846 -0.33672379506887257
rclavicle 3.2312160423984227E-15 -5.7948318822976276E-15
rhumerus -32.4724677943258 -24.498928896166824 -76.23295243835929
rradius 23.756487114904978
rwrist 4.814841509115694
rhand -18.358457855423673 22.614966600324756
rfingers 7.125020000000018
rthumb 7.929924025346981 -7.275479471340255
lclavicle 4.447997218946654E-16 -5.702913483289188E-15
lhumerus -32.79830202469867 -2.00773390270469 84.25743835902331
lradius 29.173171930431913
lwrist 6.625246822724699
lhand -27.375853856686025 23.766217049008045
lfingers 7.125020000000026
lthumb -0.7737535640746218 53.74451462408885
rfemur -17.23045879521774 6.352004920651575 26.61901236051973
rtibia 30.42400034729105
rfoot -10.066896679147327 -6.030075206448325
rtoes 11.619303656114996
lfemur -10.603099617307528 2.886062252916795 -15.072829817805077
ltibia 70.18694006703092
lfoot 13.102492428932297 -18.036149783840578
ltoes -4.195372102757339
82
root 0 0 0 -3.966070865185357 -1.5916360805680307 -4.273868517613067
lowerback 12.089484725641721 -0.6071770528697288 2.0461927826739332
upperback 0.7283256439119418 -0.36862444923814564 2.6704033474279507
thorax -6.058146299885879 -0.19828843246528294 1.7033102879674757
lowerneck -15.809371210293467 -2.8336153905755244 -1.4392485004942377
upperneck 21.640343950522055 -3.469313913743708 -0.26599594378165636
head 9.562445958274894 -1.7684208441641585 -0.2890662141898455
rclavicle 2.391533081050556E-15 -4.8694980126219065E-15
rhumerus -32.04098341075389 -23.486046230821742 -76.62366627937175
rradius 24.438073166368333
rwrist 4.327106697459604
rhand -18.372604955974328 22.785678139174596
rfingers 7.12502000000002
rthumb 7.9135910171366906 -7.102192931127494
lclavicle -9.085044682229871E-16 -4.783629329039066E-15
lhumerus -33.30495563505977 -1.8661979863040552 84.4300616902782
lradius 29.062352156042106
lwrist 6.633543723047367
lhand -27.37798103029217 23.587833517730047
lfingers 7.125020000000025
lthumb -0.7751825047790737 53.56925712297463
rfemur -15.272232680813488 6.639783496168807 27.72519705188958
rtibia 30.19429986188701
rfoot -11.948947372267249 -6.436302356192412
rtoes 11.167932740433239
lfemur -21.380335165074584 5.095768463769181 -15.162817741407217
ltibia 68.17779210256509
lfoot 2.040990072138321 -10.416547001588947
ltoes -0.9635162797042582
83
root 0 0 0 -3.658897549241129 -2.7628009214170155 -5.126653025825196
lowerback 11.369395399467342 0.21094419718773894 3.44038203110951
upperback 0.21166638654237047 0.8633668073189142 2.34685899667038
thorax -6.175659932199922 0.3679051851117571 0.3858629604505903
lowerneck -16.095336228478995 -2.99472878448743 -1.3031595284418809
upperneck 22.570815434908745 -3.8239599454083044 -0.10468345441492422
head 9.954371719333944 -1.8822816922198653 -0.307253595579218
rclavicle 1.5554609140453735E-15 -1.8562777043347243E-15
rhumerus -31.557500424537537 -22.394304245305275 -76.93085153157622
rradius 25.632515536203364
rwrist 3.375543503496398
rhand -18.54384997987196 22.912115027776437
rfingers 7.1250200000000214
rthumb 7.744848233916782 -6.971868722911012
lclavicle -1.793735506349149E-15 -1.6981890290420194E-15
lhumerus -33.68560429578047 -1.6871844706457215 84.48842816862731
lradius 28.88740372315391
lwrist 6.656733641700404
lhand -27.343386399653873 23.601284372741514
lfingers 7.125020000000025
lthumb -0.7421188401886347 53.58048568921812
rfemur -9.175125872394364 7.439756895341441 31.600659362000712
rtibia 30.854902470591952
rfoot -16.517892176668198 -6.9603241952851835
rtoes 9.941548545101327
lfemur -23.599544730770955 5.645511779138159 -15.018940665433483
ltibia 67.37426992568211
lfoot -0.33392727444640613 -8.584149228722985
ltoes -0.38308249251162607
